# xmcd
#
# Track frame offsets: 
#        150
#        18019
#        28462
#        39038
#        50485
#        67632
#        83234
#        93631
#        106787
#        125389
#        137496
#        147953
#        160555
#        170607
#        181890
#        191821
#        205666
#        220817
#        240545
#        254646
#
# Disc length: 3540 seconds
#
# Revision: 0
# Processed by: cddbd v1.5.2PL0 Copyright (c) Steve Scherf et al.
# Submitted via: ExactAudioCopy v1.0b1
#
DISCID=0a0dd214
DTITLE=100 pmus grands titres mariage et fêtes - Pour la soirée
DYEAR=2009
DGENRE=Dance
TTITLE0=Carl Perkins- Bleu suede shoes
TTITLE1=Carl Perkins - Match box
TTITLE2=Los del mar- Macarena
TTITLE3=Lorca - Ritmo de la noche
TTITLE4=Philippe Lavil -  Il tape sur des bambous
TTITLE5=Makasi - 1er Gaou
TTITLE6=Shikisha - pata pata
TTITLE7=Jimmy cliff- Reggae night
TTITLE8=Dezil' - San ou
TTITLE9=Lou Bega - Mambo n° 5
TTITLE10=Marc Lavoine - Pour une biguine avce toi
TTITLE11=Alabina - Alabina
TTITLE12=Boney M - Daddy cool
TTITLE13=Earth, wind and fire- Billy Paul- Your Song
TTITLE14=Billy Paul - Your song
TTITLE15=The weather girls - It's rainning men
TTITLE16=The Art company - Susana
TTITLE17=Début de soirée - Nuit de folie
TTITLE18=Annie Cordy - Pince-moi, j'hallucine
TTITLE19=Peter and Sloane - Besoin de rien, envie de toi
EXTD=
EXTT0=
EXTT1=
EXTT2=
EXTT3=
EXTT4=
EXTT5=
EXTT6=
EXTT7=
EXTT8=
EXTT9=
EXTT10=
EXTT11=
EXTT12=
EXTT13=
EXTT14=
EXTT15=
EXTT16=
EXTT17=
EXTT18=
EXTT19=
PLAYORDER=
